# xmcd CD database file
#
# Track frame offsets:
#	150
#	13366
#	27443
#	40260
#	53288
#	67801
#	81092
#	94848
#	108717
#	120556
#	135380
#	149161
#	164390
#	178560
#	192341
#	206584
#	220848
#	233646
#	247795
#	261636
#
# Disc length: 3680 seconds
#
# Revision: 2
# Processed by: cddbd v1.5.2PL0 Copyright (c) Steve Scherf et al.
# Submitted via: CDex 1.51
#
DISCID=1d0e5e14
DTITLE=Ella Fitzgerald - Everyone's Wrong But Me  [CD 04-10]
DYEAR=1900
DGENRE=Jazz
TTITLE0=Gotta Pebble In My Shoe
TTITLE1=I Can't Stop Loving You
TTITLE2=Strictly From Dixie
TTITLE3=Woe Is Me
TTITLE4=I Let A Tear Fall In The River
TTITLE5=F.D.R. Jones
TTITLE6=I Love Each Move You Make
TTITLE7=It's Foxy
TTITLE8=I Found My Yellow Basket
TTITLE9=Undecided
TTITLE10='Tain't What You Do  (It's The Way What Cha Do It)
TTITLE11=One Side Of Me
TTITLE12=My Heart Belongs To Daddy
TTITLE13=Once Is Enough For Me
TTITLE14=I Had To Live And Learn
TTITLE15=Sugar Pie
TTITLE16=It's Slumbertime Along The Swanee
TTITLE17=I'm Up A Tree
TTITLE18=Chew-Chew-Chew  (Your Bubble Gum)
TTITLE19=Don't Worry About Me
EXTD=
EXTT0=
EXTT1=
EXTT2=
EXTT3=
EXTT4=
EXTT5=
EXTT6=
EXTT7=
EXTT8=
EXTT9=
EXTT10=
EXTT11=
EXTT12=
EXTT13=
EXTT14=
EXTT15=
EXTT16=
EXTT17=
EXTT18=
EXTT19=
PLAYORDER=
